<svg width="108" height="73" viewBox="0 0 108 73" fill="none" xmlns="http://www.w3.org/2000/svg">
<g filter="url(#filter0_d_20_67)">
<path d="M21.5 1.5H61.5C65.1188 1.5 67.5 3.83357 67.5 6.0918V13.6836H75.8906C77.4583 13.6836 78.9307 14.1653 80.0273 14.9717L80.2422 15.1367L95.8516 27.8154C96.9592 28.7152 97.4999 29.8566 97.5 30.9531V46.1719H101.5C101.862 46.1719 102.149 46.2934 102.32 46.4326C102.49 46.5704 102.5 46.6765 102.5 46.7031V50.7637C102.5 50.7903 102.49 50.8956 102.32 51.0332C102.149 51.1725 101.862 51.2949 101.5 51.2949H92.5V52.7949C92.4997 58.4161 86.7592 63.4775 79 63.4775C71.2408 63.4775 65.5003 58.4161 65.5 52.7949V51.2949H42.5V52.7949C42.4997 58.4161 36.7592 63.4775 29 63.4775C21.2408 63.4775 15.5003 58.4161 15.5 52.7949V38.0498H37.75C38.9592 38.0498 40.4997 37.1982 40.5 35.5352V33.5039C40.4998 31.8408 38.9593 30.9893 37.75 30.9893H5.5V29.9277H42.75C43.9594 29.9277 45.5 29.0754 45.5 27.4121V25.3818C45.4999 23.7186 43.9593 22.8662 42.75 22.8662H10.5V21.8057H47.75C48.9594 21.8057 50.5 20.9533 50.5 19.29V17.2598C50.5 15.5965 48.9594 14.7441 47.75 14.7441H5.5V13.6836H15.5V6.0918C15.5 3.83357 17.8812 1.5 21.5 1.5ZM29 45.2031C24.3375 45.2031 20 48.3269 20 52.7949C20.0003 57.2626 24.3377 60.3857 29 60.3857C33.6623 60.3857 37.9997 57.2626 38 52.7949C38 48.3269 33.6625 45.2031 29 45.2031ZM79 45.2031C74.3375 45.2031 70 48.3269 70 52.7949C70.0003 57.2626 74.3377 60.3857 79 60.3857C83.6623 60.3857 87.9997 57.2626 88 52.7949C88 48.3269 83.6625 45.2031 79 45.2031ZM93 30.2393L92.4453 29.7891L76.8359 17.1104L76.4229 16.7754H67.5V33.9893H93V30.2393Z" stroke="#F07807" stroke-width="3" shape-rendering="crispEdges"/>
</g>
<defs>
<filter id="filter0_d_20_67" x="0" y="0" width="108" height="72.9778" filterUnits="userSpaceOnUse" color-interpolation-filters="sRGB">
<feFlood flood-opacity="0" result="BackgroundImageFix"/>
<feColorMatrix in="SourceAlpha" type="matrix" values="0 0 0 0 0 0 0 0 0 0 0 0 0 0 0 0 0 0 127 0" result="hardAlpha"/>
<feOffset dy="4"/>
<feGaussianBlur stdDeviation="2"/>
<feComposite in2="hardAlpha" operator="out"/>
<feColorMatrix type="matrix" values="0 0 0 0 0 0 0 0 0 0 0 0 0 0 0 0 0 0 0.5 0"/>
<feBlend mode="normal" in2="BackgroundImageFix" result="effect1_dropShadow_20_67"/>
<feBlend mode="normal" in="SourceGraphic" in2="effect1_dropShadow_20_67" result="shape"/>
</filter>
</defs>
</svg>
