<svg width="108" height="73" viewBox="0 0 108 73" fill="none" xmlns="http://www.w3.org/2000/svg">
<g filter="url(#filter0_d_20_80)">
<path d="M28.2705 1.5H61.6934C62.9855 1.50015 64.2581 1.77001 65.415 2.28613C66.5717 2.80216 67.5788 3.54943 68.3672 4.46387V4.46289L85.3633 24.1865L85.8125 24.707H89C96.563 24.707 102.5 30.3732 102.5 37.1318V48.7354C102.5 49.0859 102.16 49.5557 101.5 49.5557H92.5V51.0557C92.5 57.8143 86.563 63.4805 79 63.4805C71.437 63.4805 65.5 57.8143 65.5 51.0557V49.5557H42.5V51.0557C42.5 57.8143 36.563 63.4805 29 63.4805C21.437 63.4805 15.5 57.8143 15.5 51.0557V49.5557H6.5C5.84032 49.5557 5.50022 49.0859 5.5 48.7354V32.4902C5.5 28.9575 8.12172 25.89 11.8506 24.9932L12.5869 24.8164L12.8818 24.1191L20.3633 6.42871C21.6255 3.49936 24.7297 1.5 28.2705 1.5ZM29 42.5938C24.1427 42.5938 20 46.2848 20 51.0557C20 55.8266 24.1427 59.5176 29 59.5176C33.8573 59.5176 38 55.8266 38 51.0557C38 46.2848 33.8573 42.5938 29 42.5938ZM79 42.5938C74.1427 42.5938 70 46.2848 70 51.0557C70 55.8266 74.1427 59.5176 79 59.5176C83.8573 59.5176 88 55.8266 88 51.0557C88 46.2848 83.8573 42.5938 79 42.5938ZM26.8926 8.68945L20.8926 22.6133L19.9902 24.707H41.75V7.7832H27.2832L26.8926 8.68945ZM46.25 24.707H76.9668L74.8301 22.2275L62.8301 8.30371L62.3809 7.7832H46.25V24.707Z" stroke="#F07807" stroke-width="3" shape-rendering="crispEdges"/>
</g>
<defs>
<filter id="filter0_d_20_80" x="0" y="0" width="108" height="72.98" filterUnits="userSpaceOnUse" color-interpolation-filters="sRGB">
<feFlood flood-opacity="0" result="BackgroundImageFix"/>
<feColorMatrix in="SourceAlpha" type="matrix" values="0 0 0 0 0 0 0 0 0 0 0 0 0 0 0 0 0 0 127 0" result="hardAlpha"/>
<feOffset dy="4"/>
<feGaussianBlur stdDeviation="2"/>
<feComposite in2="hardAlpha" operator="out"/>
<feColorMatrix type="matrix" values="0 0 0 0 0 0 0 0 0 0 0 0 0 0 0 0 0 0 0.25 0"/>
<feBlend mode="normal" in2="BackgroundImageFix" result="effect1_dropShadow_20_80"/>
<feBlend mode="normal" in="SourceGraphic" in2="effect1_dropShadow_20_80" result="shape"/>
</filter>
</defs>
</svg>
