<svg width="108" height="73" viewBox="0 0 108 73" fill="none" xmlns="http://www.w3.org/2000/svg">
<g filter="url(#filter0_d_20_76)">
<path d="M42 38.6318H42.9902C46.3476 40.0796 50.044 40.9521 54 40.9521C57.9541 40.9521 61.6655 40.0806 65.0117 38.6318H66C75.2161 38.6318 82.5 45.5476 82.5 53.8408V58.0176C82.5 60.9297 79.9193 63.4805 76.5 63.4805H31.5C28.0807 63.4805 25.5 60.9297 25.5 58.0176V53.8408C25.5 45.5476 32.7839 38.6318 42 38.6318ZM84 33.9902H94C98.7941 33.9902 102.5 37.5841 102.5 41.7725V46.4141C102.5 48.0498 101.044 49.5557 99 49.5557H89.9492C88.7162 43.5041 84.9443 38.3695 79.7256 35.0479C80.9774 34.378 82.434 33.9902 84 33.9902ZM14 33.9902H24C25.5657 33.9902 27.0218 34.3782 28.2734 35.0479C23.0541 38.37 19.2825 43.5052 18.0381 49.5557H9C6.95573 49.5557 5.5 48.0498 5.5 46.4141V41.7725L5.51074 41.3818C5.73274 37.3631 9.35562 33.9902 14 33.9902ZM54 1.5C62.9505 1.5 70 8.19844 70 16.2451C69.9999 24.2917 62.9505 30.9902 54 30.9902C45.0495 30.9902 38.0001 24.2917 38 16.2451C38 8.19844 45.0495 1.5 54 1.5ZM19 10.7832C23.7942 10.7832 27.4998 14.3771 27.5 18.5654C27.5 22.7539 23.7943 26.3486 19 26.3486C14.2057 26.3486 10.5 22.7539 10.5 18.5654C10.5002 14.3771 14.2058 10.7832 19 10.7832ZM89 10.7832C93.7942 10.7832 97.4998 14.3771 97.5 18.5654C97.5 22.7539 93.7943 26.3486 89 26.3486C84.2057 26.3486 80.5 22.7539 80.5 18.5654C80.5002 14.3771 84.2058 10.7832 89 10.7832Z" stroke="#F07807" stroke-width="3" shape-rendering="crispEdges"/>
</g>
<defs>
<filter id="filter0_d_20_76" x="0" y="0" width="108" height="72.98" filterUnits="userSpaceOnUse" color-interpolation-filters="sRGB">
<feFlood flood-opacity="0" result="BackgroundImageFix"/>
<feColorMatrix in="SourceAlpha" type="matrix" values="0 0 0 0 0 0 0 0 0 0 0 0 0 0 0 0 0 0 127 0" result="hardAlpha"/>
<feOffset dy="4"/>
<feGaussianBlur stdDeviation="2"/>
<feComposite in2="hardAlpha" operator="out"/>
<feColorMatrix type="matrix" values="0 0 0 0 0 0 0 0 0 0 0 0 0 0 0 0 0 0 0.25 0"/>
<feBlend mode="normal" in2="BackgroundImageFix" result="effect1_dropShadow_20_76"/>
<feBlend mode="normal" in="SourceGraphic" in2="effect1_dropShadow_20_76" result="shape"/>
</filter>
</defs>
</svg>
